<?xml version="1.0" encoding="utf-8"?>
<!-- Generator: Adobe Illustrator 21.0.0, SVG Export Plug-In . SVG Version: 6.00 Build 0)  -->
<svg version="1.1" id="图层_1" xmlns="http://www.w3.org/2000/svg" xmlns:xlink="http://www.w3.org/1999/xlink" x="0px" y="0px"
	 viewBox="0 0 1366 768" style="enable-background:new 0 0 1366 768;" xml:space="preserve">
<style type="text/css">
	.st0{fill:#CCCCCC;}
	.st1{fill:#FBB03B;}
	.st2{fill:#666666;}
	.st3{font-family:'RTWSYaYuanG0v1-Regular';}
	.st4{font-size:88.5858px;}
</style>
<g>
	<circle class="st0" cx="640.8" cy="285.8" r="79.1"/>
	<g>
		<path class="st1" d="M547.5,279.4c3.3-47.9,42.6-85.9,91.1-87v-0.1h183C787.3,127.5,719.2,83.4,640.8,83.4
			c-65.9,0-124.5,31.2-161.9,79.6L547.5,279.4z"/>
		<path class="st1" d="M681,370.2c-12.2,5.8-25.8,9.1-40.2,9.1c-34.1,0-63.9-18.2-80.2-45.5l-92.1-156.1
			c-20.4,31.8-32.2,69.6-32.2,110.1c0,103.1,76.2,188.3,175.4,202.4L681,370.2z"/>
		<path class="st1" d="M693.8,208.7c24.5,16.9,40.6,45.1,40.6,77.1c0,15.7-3.9,30.4-10.7,43.4l0.1,0l-0.7,1.3
			c-0.7,1.3-1.5,2.6-2.3,3.9l-91,157.6c3.7,0.2,7.4,0.3,11.1,0.3c112.9,0,204.5-91.6,204.5-204.5c0-28.1-5.7-54.8-15.9-79.1H693.8z"
			/>
	</g>
</g>
<text transform="matrix(1 0 0 1 385.9063 616.1328)" class="st2 st3 st4">chrome  plug</text>
</svg>
